<svg width="104" height="25" viewBox="0 0 104 25" fill="none" xmlns="http://www.w3.org/2000/svg">
<path d="M29.6661 12.7155C29.0453 11.6299 28.735 10.3822 28.735 8.97853C28.735 7.57486 29.0453 6.31187 29.6661 5.23236C30.2868 4.15286 31.1387 3.30882 32.228 2.69721C33.3173 2.08865 34.5709 1.78284 35.9949 1.78284C37.4189 1.78284 38.6756 2.08865 39.7618 2.69721C40.8481 3.30577 41.7001 4.15286 42.3147 5.23236C42.9293 6.31187 43.2336 7.56263 43.2336 8.97853C43.2336 10.3944 42.9263 11.6299 42.3147 12.7155C41.7001 13.8011 40.8511 14.6513 39.7618 15.2598C38.6725 15.8684 37.4189 16.1742 35.9949 16.1742C34.5709 16.1742 33.3143 15.8684 32.228 15.2598C31.1418 14.6513 30.2868 13.8011 29.6661 12.7155ZM40.416 11.6727C40.845 10.896 41.058 9.99993 41.058 8.97853C41.058 7.95712 40.842 7.0611 40.416 6.28435C39.987 5.50759 39.3906 4.90209 38.6269 4.46478C37.8632 4.02748 36.9838 3.81035 35.9949 3.81035C35.0061 3.81035 34.1297 4.02748 33.363 4.46478C32.5993 4.90209 31.9968 5.50759 31.5617 6.28435C31.1266 7.0611 30.9075 7.95712 30.9075 8.97853C30.9075 9.99993 31.1235 10.896 31.5617 11.6727C31.9998 12.4495 32.5962 13.055 33.363 13.4923C34.1267 13.9296 35.0061 14.1467 35.9949 14.1467C36.9838 14.1467 37.8601 13.9296 38.6269 13.4923C39.3906 13.055 39.987 12.4495 40.416 11.6727Z" fill="white"/>
<path d="M47.3291 12.3179C47.3291 12.902 47.4721 13.3546 47.7551 13.6788C48.0381 14.003 48.4306 14.165 48.9326 14.165C49.4347 14.165 49.8454 14.003 50.1284 13.6788C50.4114 13.3546 50.5544 12.899 50.5544 12.3179V6.5932H52.6113V12.2782C52.6113 13.5228 52.2918 14.4831 51.6528 15.1497C51.0138 15.8195 50.1071 16.1528 48.9326 16.1528C47.7581 16.1528 46.8544 15.8195 46.2215 15.1497C45.5887 14.48 45.2722 13.5228 45.2722 12.2782V6.5932H47.3291V12.3179Z" fill="white"/>
<path d="M54.9025 6.5932H56.9015V7.80727C57.1389 7.39748 57.507 7.07027 58.0091 6.83173C58.5111 6.5932 59.1045 6.47394 59.7891 6.47394H59.8682V8.52286H59.7313C59.0588 8.52286 58.4746 8.63295 57.9817 8.85008C57.4857 9.0672 57.148 9.36995 56.9624 9.75527V15.8378H54.9055V6.5932H54.9025Z" fill="white"/>
<path d="M65.8015 6.61156C66.264 5.47089 66.7265 4.56875 67.1951 3.89903C67.6636 3.22931 68.1748 2.74919 68.7286 2.45867C69.2824 2.16815 69.9274 2.02136 70.6668 2.02136C71.0106 2.02136 71.2936 2.055 71.5188 2.12228V4.11004C71.4671 4.09781 71.3971 4.08557 71.3119 4.07946C71.2267 4.07334 71.1384 4.07028 71.0441 4.07028C70.3838 4.07028 69.824 4.3027 69.3615 4.76753C68.899 5.23236 68.4395 6.02135 67.977 7.13449L66.2762 11.3302C65.8137 12.4709 65.3481 13.3791 64.8704 14.055C64.3958 14.7308 63.8724 15.214 63.2973 15.5075C62.7222 15.7981 62.0407 15.9449 61.2496 15.9449C61.0518 15.9449 60.8601 15.9326 60.6745 15.9051C60.4889 15.8776 60.3246 15.8439 60.1785 15.8042V13.8164C60.3641 13.8684 60.5863 13.8959 60.851 13.8959C61.5904 13.8959 62.2019 13.6635 62.6918 13.1987C63.1787 12.7339 63.6472 11.9388 64.0976 10.8134L65.7984 6.61767L65.8015 6.61156Z" fill="white"/>
<path d="M75.1366 15.8348H73.0797V8.37917H71.674V6.59019H73.0797V4.46176L75.0179 3.44647H75.1366V6.58713H76.7188V8.37612H75.1366V15.8317V15.8348Z" fill="white"/>
<path d="M78.2706 13.7491C77.8416 13.006 77.6286 12.1589 77.6286 11.2048C77.6286 10.2507 77.8416 9.40666 78.2706 8.66966C78.6996 7.93571 79.2899 7.35468 80.0415 6.9296C80.793 6.50453 81.6511 6.29352 82.6126 6.29352C83.5741 6.29352 84.4291 6.50453 85.1746 6.9296C85.92 7.35468 86.5073 7.93266 86.9333 8.66966C87.3593 9.40666 87.5753 10.2507 87.5753 11.2048C87.5753 12.1589 87.3623 13.006 86.9333 13.7491C86.5042 14.4923 85.917 15.0733 85.1746 15.4984C84.4291 15.9234 83.5741 16.1345 82.6126 16.1345C81.6511 16.1345 80.793 15.9234 80.0415 15.4984C79.2899 15.0733 78.6996 14.4923 78.2706 13.7491ZM85.5001 11.2048C85.5001 10.3424 85.2263 9.64213 84.6786 9.09779C84.1309 8.55345 83.4433 8.28128 82.6126 8.28128C81.7819 8.28128 81.0912 8.55345 80.5466 9.09779C79.9989 9.64213 79.725 10.3424 79.725 11.2048C79.725 12.0672 79.9989 12.7736 80.5466 13.321C81.0943 13.8715 81.7819 14.1467 82.6126 14.1467C83.4433 14.1467 84.1309 13.8715 84.6786 13.321C85.2263 12.7706 85.5001 12.0641 85.5001 11.2048Z" fill="white"/>
<path d="M89.4374 6.5932H91.4365V7.80727C91.6738 7.39748 92.042 7.07027 92.5441 6.83173C93.0461 6.5932 93.6394 6.47394 94.3241 6.47394H94.4032V8.52286H94.2632C93.5908 8.52286 93.0066 8.63295 92.5136 8.85008C92.0207 9.0672 91.6799 9.36995 91.4943 9.75527V15.8378H89.4374V6.5932Z" fill="white"/>
<path d="M100.93 16.1345C99.7827 16.1345 98.7877 15.9265 97.9418 15.5075C97.099 15.0916 96.4479 14.5014 95.9945 13.74C95.5381 12.9785 95.3129 12.0794 95.3129 11.0458C95.3129 10.1192 95.5077 9.29962 95.8971 8.59015C96.2866 7.88067 96.8252 7.32104 97.5189 6.91125C98.2126 6.50147 98.9977 6.29352 99.8831 6.29352C100.674 6.29352 101.38 6.47089 102.001 6.82868C102.622 7.18648 103.108 7.67272 103.464 8.29045C103.82 8.90819 104 9.61155 104 10.4067V10.9051C104 11.0764 103.988 11.1956 103.96 11.2629L97.4915 12.217C97.6771 12.8806 98.0696 13.3913 98.6691 13.7491C99.2685 14.1069 100.044 14.2874 100.994 14.2874C101.35 14.2874 101.739 14.2537 102.159 14.1865C102.582 14.1192 102.938 14.0335 103.227 13.9265V15.7553C103.029 15.847 102.701 15.9357 102.238 16.0152C101.776 16.0947 101.341 16.1345 100.933 16.1345H100.93ZM98.1305 8.78892C97.6771 9.23234 97.4155 9.83173 97.3485 10.5871L101.937 9.88983C101.87 9.34549 101.657 8.9143 101.295 8.59626C100.933 8.27822 100.461 8.1192 99.8801 8.1192C99.1681 8.1192 98.5839 8.34244 98.1305 8.78586V8.78892Z" fill="white"/>
<path d="M29.3435 17.4036H31.6499V18.0305H30.019V19.6146H31.8964V20.2415H30.019V21.1467H32.2676V21.7736H29.3435V17.4036Z" fill="white"/>
<path d="M33.5364 18.8287H34.294L35.1886 20.6788L36.1075 18.8287H36.8073L35.2008 21.8868H35.1429L33.5364 18.8287Z" fill="white"/>
<path d="M39.9078 21.8684C39.5427 21.8684 39.2263 21.8012 38.9555 21.6697C38.6847 21.5382 38.4808 21.3486 38.3347 21.107C38.1887 20.8654 38.1187 20.5779 38.1187 20.2476C38.1187 19.951 38.1796 19.6911 38.3043 19.4648C38.4291 19.2385 38.5995 19.0611 38.8216 18.9296C39.0437 18.7981 39.2932 18.7339 39.5762 18.7339C39.8287 18.7339 40.0539 18.792 40.2517 18.9051C40.4494 19.0183 40.6046 19.1743 40.7172 19.37C40.8298 19.5657 40.8876 19.792 40.8876 20.0458V20.2048C40.8876 20.2599 40.8846 20.2966 40.8754 20.318L38.8155 20.6207C38.8733 20.8317 38.9981 20.9938 39.1898 21.11C39.3814 21.2232 39.6279 21.2813 39.9291 21.2813C40.0417 21.2813 40.1665 21.2721 40.3003 21.2507C40.4342 21.2293 40.5468 21.2018 40.6411 21.1681V21.7522C40.5772 21.7828 40.4738 21.8103 40.3247 21.8348C40.1756 21.8593 40.0387 21.8715 39.9078 21.8715V21.8684ZM39.0163 19.529C38.8703 19.6697 38.7881 19.8623 38.7668 20.1009L40.2304 19.8807C40.2091 19.7064 40.1421 19.5718 40.0265 19.4678C39.9109 19.3669 39.7618 19.3149 39.5762 19.3149C39.348 19.3149 39.1624 19.3853 39.0194 19.5259L39.0163 19.529Z" fill="white"/>
<path d="M42.6798 18.8286H43.3157V19.2139C43.3918 19.0824 43.5105 18.9785 43.6687 18.9051C43.8269 18.8286 44.0186 18.7919 44.2346 18.7919H44.259V19.4433H44.2133C44.0003 19.4433 43.8117 19.4769 43.6565 19.5473C43.4983 19.6176 43.3918 19.7124 43.3309 19.8347V21.7736H42.6768V18.8286H42.6798Z" fill="white"/>
<path d="M46.827 23.1039H46.1029L46.9609 21.4066L45.6191 18.8287H46.395L47.3139 20.7033L48.1902 18.8287H48.9144L46.827 23.1039Z" fill="white"/>
<path d="M51.3637 21.7736H50.7095V19.3975H50.2623V18.8287H50.7095V18.1498L51.3272 17.8256H51.3637V18.8256H51.8688V19.3944H51.3637V21.7706V21.7736Z" fill="white"/>
<path d="M53.588 17.214H54.2421V19.0764C54.3273 18.9724 54.4338 18.8868 54.5677 18.8256C54.6985 18.7644 54.8446 18.7339 54.9998 18.7339C55.2888 18.7339 55.517 18.8225 55.6844 19.003C55.8517 19.1834 55.9339 19.428 55.9339 19.74V21.7736H55.2797V19.8929C55.2797 19.7186 55.2371 19.5871 55.155 19.4923C55.0698 19.3975 54.9481 19.3485 54.7898 19.3485C54.6772 19.3485 54.5677 19.3761 54.4673 19.4342C54.3669 19.4923 54.2939 19.5626 54.2452 19.6513V21.7736H53.591V17.214H53.588Z" fill="white"/>
<path d="M57.9574 18.0641C57.8782 17.9846 57.8387 17.8867 57.8387 17.7644C57.8387 17.6421 57.8782 17.5412 57.9574 17.4647C58.0365 17.3852 58.1399 17.3485 58.2647 17.3485C58.3894 17.3485 58.4929 17.3883 58.572 17.4647C58.6511 17.5412 58.6906 17.6421 58.6906 17.7644C58.6906 17.8867 58.6511 17.9877 58.572 18.0641C58.4929 18.1406 58.3894 18.1803 58.2647 18.1803C58.1399 18.1803 58.0365 18.1406 57.9574 18.0641ZM57.9391 18.8286H58.5933V21.7736H57.9391V18.8286Z" fill="white"/>
<path d="M60.6167 18.8287H61.2465V19.107C61.3257 18.9938 61.4352 18.9021 61.5752 18.8348C61.7151 18.7675 61.8642 18.7339 62.0285 18.7339C62.3176 18.7339 62.5458 18.8226 62.7131 19.003C62.8805 19.1834 62.9626 19.4281 62.9626 19.74V21.7736H62.3085V19.8929C62.3085 19.7186 62.2659 19.5871 62.1837 19.4923C62.0985 19.3975 61.9768 19.3486 61.8186 19.3486C61.706 19.3486 61.5965 19.3761 61.496 19.4342C61.3956 19.4923 61.3226 19.5626 61.2739 19.6513V21.7736H60.6197V18.8287H60.6167Z" fill="white"/>
<path d="M67.4902 21.8256C67.4902 22.2599 67.3624 22.5932 67.1068 22.8256C66.8512 23.058 66.48 23.1742 65.9962 23.1742C65.9232 23.1742 65.8441 23.1681 65.7498 23.1589C65.6585 23.1498 65.5733 23.1345 65.4942 23.1222C65.4151 23.1069 65.3573 23.0947 65.3147 23.0825V22.48C65.4242 22.5045 65.5337 22.5259 65.6463 22.5443C65.7589 22.5626 65.8563 22.5687 65.9384 22.5687C66.5348 22.5687 66.833 22.3332 66.833 21.8592V21.7767C66.6748 21.8195 66.5166 21.8409 66.3675 21.8409C65.8837 21.8409 65.5003 21.7033 65.2173 21.4311C64.9343 21.1589 64.7913 20.7889 64.7913 20.3271C64.7913 20.0091 64.8674 19.7339 65.0226 19.5015C65.1747 19.266 65.3907 19.0856 65.6676 18.9602C65.9445 18.8348 66.2731 18.7706 66.6504 18.7706C66.7904 18.7706 66.9334 18.7767 67.0825 18.7889C67.2316 18.8012 67.3685 18.8195 67.4902 18.847V21.8317V21.8256ZM66.5713 19.3669C66.2397 19.3669 65.9719 19.4525 65.768 19.6268C65.5642 19.8011 65.4638 20.0336 65.4638 20.3241C65.4638 20.6146 65.549 20.8287 65.7194 20.9938C65.8897 21.1559 66.121 21.2384 66.4101 21.2384C66.5622 21.2384 66.7052 21.214 66.8391 21.162V19.3944C66.7539 19.3761 66.6656 19.37 66.5744 19.37L66.5713 19.3669Z" fill="white"/>
<path d="M72.8302 23.1039H72.106L72.9641 21.4066L71.6223 18.8287H72.3982L73.3171 20.7033L74.1934 18.8287H74.9175L72.8302 23.1039Z" fill="white"/>
<path d="M76.4298 21.107C76.2928 20.8715 76.2259 20.5993 76.2259 20.2966C76.2259 19.9938 76.2928 19.7247 76.4298 19.4892C76.5667 19.2538 76.7553 19.0703 76.9927 18.9357C77.233 18.8012 77.5038 18.7339 77.8112 18.7339C78.1185 18.7339 78.3893 18.8012 78.6266 18.9357C78.8639 19.0703 79.0495 19.2568 79.1865 19.4892C79.3234 19.7247 79.3903 19.9938 79.3903 20.2966C79.3903 20.5993 79.3234 20.8715 79.1865 21.107C79.0495 21.3424 78.8639 21.529 78.6266 21.6635C78.3893 21.7981 78.1185 21.8654 77.8112 21.8654C77.5038 21.8654 77.23 21.7981 76.9927 21.6635C76.7523 21.529 76.5636 21.3424 76.4298 21.107ZM78.7331 20.2966C78.7331 20.0213 78.6449 19.7981 78.4714 19.6238C78.298 19.4495 78.0789 19.3639 77.8142 19.3639C77.5495 19.3639 77.3304 19.4495 77.157 19.6238C76.9835 19.7981 76.8953 20.0213 76.8953 20.2966C76.8953 20.5718 76.9835 20.795 77.157 20.9724C77.3304 21.1467 77.5495 21.2354 77.8142 21.2354C78.0789 21.2354 78.298 21.1467 78.4714 20.9724C78.6449 20.7981 78.7331 20.5718 78.7331 20.2966Z" fill="white"/>
<path d="M81.8854 20.6513C81.8854 20.8378 81.931 20.9816 82.0223 21.0856C82.1136 21.1895 82.2383 21.2415 82.3966 21.2415C82.5548 21.2415 82.6887 21.1895 82.7769 21.0856C82.8651 20.9816 82.9138 20.8378 82.9138 20.6513V18.8256H83.568V20.636C83.568 21.0336 83.4676 21.3394 83.2637 21.5504C83.0599 21.7645 82.7708 21.8715 82.3966 21.8715C82.0223 21.8715 81.7363 21.7645 81.5324 21.5504C81.3316 21.3363 81.2312 21.0336 81.2312 20.636V18.8256H81.8854V20.6513Z" fill="white"/>
<path d="M88.0499 18.8287H88.6798V19.107C88.7589 18.9938 88.8684 18.9021 89.0084 18.8348C89.1484 18.7675 89.2975 18.7339 89.4618 18.7339C89.7508 18.7339 89.979 18.8226 90.1464 19.003C90.3137 19.1834 90.3959 19.4281 90.3959 19.74V21.7736H89.7417V19.8929C89.7417 19.7186 89.6991 19.5871 89.6169 19.4923C89.5317 19.3975 89.41 19.3486 89.2518 19.3486C89.1392 19.3486 89.0327 19.3761 88.9293 19.4342C88.8289 19.4923 88.7558 19.5626 88.7072 19.6513V21.7736H88.053V18.8287H88.0499Z" fill="white"/>
<path d="M94.0167 21.8684C93.6516 21.8684 93.3352 21.8012 93.0644 21.6697C92.7966 21.5351 92.5897 21.3486 92.4436 21.107C92.2976 20.8654 92.2276 20.5779 92.2276 20.2476C92.2276 19.951 92.2885 19.6911 92.4132 19.4648C92.538 19.2385 92.7084 19.0611 92.9305 18.9296C93.1495 18.7981 93.4021 18.7339 93.6851 18.7339C93.9376 18.7339 94.1628 18.792 94.3606 18.9051C94.5583 19.0183 94.7135 19.1743 94.8261 19.37C94.9387 19.5657 94.9965 19.792 94.9965 20.0458V20.2048C94.9965 20.2599 94.9934 20.2966 94.9843 20.318L92.9244 20.6207C92.9822 20.8317 93.1069 20.9938 93.2986 21.11C93.4903 21.2232 93.7368 21.2813 94.038 21.2813C94.1506 21.2813 94.2754 21.2721 94.4092 21.2507C94.5431 21.2293 94.6557 21.2018 94.75 21.1681V21.7522C94.6861 21.7828 94.5827 21.8103 94.4336 21.8348C94.2875 21.8593 94.1476 21.8715 94.0167 21.8715V21.8684ZM93.1252 19.529C92.9792 19.6697 92.897 19.8623 92.8757 20.1009L94.3362 19.8807C94.3149 19.7064 94.248 19.5718 94.1324 19.4678C94.0167 19.3669 93.8676 19.3149 93.682 19.3149C93.4538 19.3149 93.2682 19.3853 93.1252 19.5259V19.529Z" fill="white"/>
<path d="M98.4104 21.8684C98.0453 21.8684 97.7288 21.8012 97.458 21.6697C97.1903 21.5351 96.9834 21.3486 96.8373 21.107C96.6913 20.8654 96.6213 20.5779 96.6213 20.2476C96.6213 19.951 96.6821 19.6911 96.8069 19.4648C96.9316 19.2385 97.102 19.0611 97.3241 18.9296C97.5432 18.7981 97.7958 18.7339 98.0787 18.7339C98.3313 18.7339 98.5565 18.792 98.7542 18.9051C98.952 19.0183 99.1072 19.1743 99.2198 19.37C99.3324 19.5657 99.3902 19.792 99.3902 20.0458V20.2048C99.3902 20.2599 99.3871 20.2966 99.378 20.318L97.3181 20.6207C97.3759 20.8317 97.5006 20.9938 97.6923 21.11C97.884 21.2232 98.1305 21.2813 98.4317 21.2813C98.5443 21.2813 98.669 21.2721 98.8029 21.2507C98.9368 21.2293 99.0494 21.2018 99.1437 21.1681V21.7522C99.0798 21.7828 98.9763 21.8103 98.8273 21.8348C98.6812 21.8593 98.5412 21.8715 98.4104 21.8715V21.8684ZM97.5189 19.529C97.3728 19.6697 97.2907 19.8623 97.2694 20.1009L98.7299 19.8807C98.7086 19.7064 98.6417 19.5718 98.526 19.4678C98.4104 19.3669 98.2613 19.3149 98.0757 19.3149C97.8475 19.3149 97.6619 19.3853 97.5189 19.5259V19.529Z" fill="white"/>
<path d="M103.711 21.7033C103.531 21.7491 103.355 21.7828 103.184 21.8042C103.014 21.8256 102.844 21.8348 102.67 21.8348C102.153 21.8348 101.748 21.7002 101.453 21.4372C101.158 21.1712 101.012 20.8011 101.012 20.3302C101.012 20.0183 101.085 19.743 101.231 19.5106C101.377 19.2751 101.584 19.0947 101.846 18.9632C102.107 18.8317 102.415 18.7675 102.762 18.7675C102.853 18.7675 102.95 18.7767 103.051 18.7981V17.214H103.705V21.7033H103.711ZM102.792 19.3669C102.457 19.3669 102.186 19.4525 101.986 19.6268C101.785 19.8011 101.684 20.0335 101.684 20.3302C101.684 20.6085 101.773 20.8287 101.949 20.9907C102.126 21.1528 102.36 21.2354 102.655 21.2354C102.786 21.2354 102.92 21.217 103.06 21.1834V19.3975C102.971 19.3761 102.883 19.3669 102.795 19.3669H102.792Z" fill="white"/>
<path d="M20.9976 6.97526C20.8768 6.7628 20.7493 6.55372 20.6151 6.35476C19.2763 6.31092 19.018 7.10003 18.112 8.68837C20.4742 13.2173 18.4073 19.574 13.0757 20.5621C12.408 21.8402 11.7839 22.8451 10.9283 23.8636C20.2494 24.2379 25.071 14.8259 20.9976 6.97526Z" fill="white"/>
<path d="M4.44914 17.0044C1.8454 12.4013 4.09012 5.7714 9.62641 4.91821C10.2471 3.63 10.8343 2.59809 11.5121 1.65386C11.4215 1.65048 11.3309 1.65048 11.2403 1.65048C2.30508 1.48861 -2.41922 10.4218 1.25151 18.1341C2.70101 18.6467 3.70426 18.3162 4.44914 17.0044Z" fill="white"/>
<path d="M14.9882 9.07621C16.1491 6.22328 17.8436 3.06683 21.266 3.72105V0.197032C15.6492 -1.00687 12.9683 3.51534 11.1329 8.15896L8.11649 15.5948C6.86495 18.9367 4.86518 21.7964 1.17432 20.9162V24.4403C7.177 25.8094 9.9485 21.6514 11.9751 16.5121L14.9882 9.07621Z" fill="white"/>
</svg>
